<svg width="22" height="22" viewBox="0 0 22 22" fill="none" xmlns="http://www.w3.org/2000/svg">
<path d="M21.1538 10.1538H11.8462V0.846154C11.8462 0.379077 11.4671 0 11 0C10.5329 0 10.1538 0.379077 10.1538 0.846154V10.1538H0.846154C0.379077 10.1538 0 10.5329 0 11C0 11.4671 0.379077 11.8462 0.846154 11.8462H10.1538V21.1538C10.1538 21.6209 10.5329 22 11 22C11.4671 22 11.8462 21.6209 11.8462 21.1538V11.8462H21.1538C21.6209 11.8462 22 11.4671 22 11C22 10.5329 21.6209 10.1538 21.1538 10.1538Z" fill="#618BFB"/>
</svg>
