<svg width="18" height="22" viewBox="0 0 18 22" fill="none" xmlns="http://www.w3.org/2000/svg">
<path d="M17.7596 16.9212C16.3868 15.8904 15.5996 14.3148 15.5996 12.6V9C15.5996 5.9844 13.5668 3.4344 10.7996 2.6496V1.8C10.7996 0.8076 9.99204 0 8.99964 0C8.00724 0 7.19964 0.8076 7.19964 1.8V2.6496C4.43244 3.4356 2.39964 5.9844 2.39964 9V12.6C2.39964 14.3148 1.61244 15.8892 0.239636 16.9212C0.0332359 17.076 -0.0507641 17.346 0.0308359 17.5908C0.112436 17.8356 0.341636 18.0012 0.599636 18.0012H6.05964C6.02004 18.198 5.99844 18.3984 5.99844 18.6012C5.99844 20.2548 7.34484 21.6012 8.99844 21.6012C10.652 21.6012 11.9984 20.2548 11.9984 18.6012C11.9984 18.3996 11.978 18.198 11.9384 18.0012H17.3984C17.6564 18.0012 17.8856 17.8356 17.9672 17.5908C18.0488 17.346 17.966 17.076 17.7596 16.9212ZM8.39964 1.8C8.39964 1.4688 8.66844 1.2 8.99964 1.2C9.33084 1.2 9.59964 1.4688 9.59964 1.8V2.4276C9.40164 2.4096 9.20244 2.4 8.99964 2.4C8.79684 2.4 8.59764 2.4096 8.39964 2.4276V1.8ZM10.7996 18.6C10.7996 19.5924 9.99204 20.4 8.99964 20.4C8.00724 20.4 7.19964 19.5924 7.19964 18.6C7.19964 18.3948 7.23564 18.192 7.30284 18H10.6964C10.7636 18.192 10.7996 18.3948 10.7996 18.6ZM2.09004 16.8C2.39604 16.4292 2.66244 16.0248 2.88084 15.5988C3.35844 14.6652 3.59964 13.656 3.59964 12.6V9C3.59964 6.0228 6.02244 3.6 8.99964 3.6C11.9768 3.6 14.3996 6.0228 14.3996 9V12.6C14.3996 13.656 14.642 14.6652 15.1184 15.5988C15.3368 16.026 15.6032 16.4292 15.9092 16.8H2.08884H2.09004Z" fill="black"/>
</svg>
